<?xml version="1.0" encoding="UTF-8"?>
<svg width="404px" height="249px" viewBox="0 0 404 249" version="1.1" xmlns="http://www.w3.org/2000/svg" xmlns:xlink="http://www.w3.org/1999/xlink">
    <!-- Generator: Sketch 49.3 (51167) - http://www.bohemiancoding.com/sketch -->
    <title>elephant</title>
    <desc>Created with Sketch.</desc>
    <defs>
        <path d="M114.406262,33.0409234 C116.906654,33.0409234 198.587086,33.0409234 212.851562,33.0409234 C236.23173,33.0409234 290.966457,24.8360253 302.9375,21.828125 C322.709617,16.8600902 345.780295,41.1710486 350.739426,66.2834373 C355.388936,89.8279414 351.557615,107.060167 350.739426,117.478001 C348.492267,146.090655 340.913827,171.751032 340.913827,188.521289 C340.913827,211.397578 342.398654,228.60813 345.368307,240.152946 C338.345502,243.384315 332.63113,245 328.225191,245 C323.819252,245 319.466187,243.384315 315.165998,240.152946 C313.832665,212.852821 313.165998,195.642269 313.165998,188.521289 C313.165998,182.659437 311.70814,171.488839 308.792425,155.009494 C278.81585,157.935469 251.486979,159.893283 226.805814,160.882937 C202.124648,161.87259 177.935757,159.914776 154.23914,155.009494 C151.904793,170.439973 150.468074,183.375856 149.928982,193.817144 C149.389891,204.258431 148.391339,219.703699 146.933325,240.152946 C138.57305,243.384315 132.573934,245 128.935979,245 C125.298024,245 120.454785,243.384315 114.406262,240.152946 C121.029663,211.242836 124.190445,189.722491 123.888609,175.59191 C122.851956,127.060632 111.761968,33.0409234 114.406262,33.0409234 Z" id="path-1"></path>
        <filter x="-2.7%" y="-2.0%" width="103.8%" height="104.0%" filterUnits="objectBoundingBox" id="filter-2">
            <feMorphology radius="0.5" operator="dilate" in="SourceAlpha" result="shadowSpreadOuter1"></feMorphology>
            <feOffset dx="-2" dy="0" in="shadowSpreadOuter1" result="shadowOffsetOuter1"></feOffset>
            <feGaussianBlur stdDeviation="1" in="shadowOffsetOuter1" result="shadowBlurOuter1"></feGaussianBlur>
            <feComposite in="shadowBlurOuter1" in2="SourceAlpha" operator="out" result="shadowBlurOuter1"></feComposite>
            <feColorMatrix values="0 0 0 0 0   0 0 0 0 0   0 0 0 0 0  0 0 0 0.25 0" type="matrix" in="shadowBlurOuter1"></feColorMatrix>
        </filter>
        <path d="M123.708835,0.204671096 C110.38422,-0.782948431 96.8541352,1.80367512 83.1185794,7.96454174 C70.5914337,12.5905258 61.8564763,19.2306573 56.9137071,27.8849362 C45.3780726,48.0826419 45.2190029,54.1139776 45.2190029,74.89832 C45.2190029,80.5496319 45.2190029,94.2775295 45.2190029,116.082013 C44.8941776,135.814054 42.9028153,149.847335 39.2449159,158.181856 C35.7666671,166.107044 22.7617193,171.939345 0.23007254,175.678759 C0.0766908466,178.530744 -4.04672828e-16,180.785883 0,182.444176 C-4.04672828e-16,184.102469 0.742211413,186.619924 2.22663424,189.996543 C19.3683356,190.134613 33.6991251,186.137222 45.2190029,178.004371 C58.0689401,168.932519 56.2252902,163.797983 62.486142,147.454285 C66.2191971,137.709297 68.3704403,127.251873 68.9398717,116.082013 C98.4645478,120.955097 116.720869,123.391639 123.708835,123.391639 C134.190784,123.391639 148.793717,120.923091 160.10709,103.338129 C171.533853,85.5769196 172.420694,75.0592376 174.453335,67.1621734 C177.277215,56.1910529 186,34.1766174 186,21.1547558 C186,8.13289413 144.421355,1.73988173 123.708835,0.204671096 Z" id="path-3"></path>
        <filter x="-1.9%" y="-1.3%" width="104.8%" height="104.7%" filterUnits="objectBoundingBox" id="filter-4">
            <feMorphology radius="0.5" operator="dilate" in="SourceAlpha" result="shadowSpreadOuter1"></feMorphology>
            <feOffset dx="1" dy="2" in="shadowSpreadOuter1" result="shadowOffsetOuter1"></feOffset>
            <feGaussianBlur stdDeviation="1" in="shadowOffsetOuter1" result="shadowBlurOuter1"></feGaussianBlur>
            <feComposite in="shadowBlurOuter1" in2="SourceAlpha" operator="out" result="shadowBlurOuter1"></feComposite>
            <feColorMatrix values="0 0 0 0 0   0 0 0 0 0   0 0 0 0 0  0 0 0 0.25 0" type="matrix" in="shadowBlurOuter1"></feColorMatrix>
        </filter>
    </defs>
    <g id="Page-1" stroke="none" stroke-width="1" fill="none" fill-rule="evenodd">
        <g id="Elephant" transform="translate(-120.000000, -62.000000)">
            <g id="elephant" transform="translate(122.000000, 63.000000)">
                <path d="M296,154 L296,229.687017 C301.80012,232.562339 306.466787,234 310,234 C313.533213,234 318.19988,232.562339 324,229.687017 L324,154 L296,154 Z" id="Path-3" stroke="#979797" fill="#D8D8D8"></path>
                <path d="M121.059144,123.33286 C113.079457,155.491919 108.089613,178.903422 106.089613,193.56737 C104.449625,205.591719 102.753088,217.626721 101,229.672376 C104.755708,232.792207 108.411477,234.352122 111.967306,234.352122 C115.523135,234.352122 118.887081,232.792207 122.059144,229.672376 L143.118289,129.33286 L121.059144,123.33286 Z" id="Path-3-Copy" stroke="#979797" fill="#D8D8D8"></path>
                <g id="Path">
                    <use fill="black" fill-opacity="1" filter="url(#filter-2)" xlink:href="#path-1"></use>
                    <use stroke="#979797" stroke-width="1" fill="#D8D8D8" fill-rule="evenodd" xlink:href="#path-1"></use>
                </g>
                <g id="Path-2">
                    <use fill="black" fill-opacity="1" filter="url(#filter-4)" xlink:href="#path-3"></use>
                    <use stroke="#979797" stroke-width="1" fill="#D8D8D8" fill-rule="evenodd" xlink:href="#path-3"></use>
                </g>
                <circle id="Oval" fill="#000000" cx="77" cy="76" r="5"></circle>
                <path d="M394.04451,154.695284 C387.335643,135.817928 382.463422,123.3603 379.427845,117.322398 C376.392268,111.284497 366.955141,94.8960125 351.116464,68.1569449 L353,83.4050009 C362.468082,99.4723027 368.913046,110.778102 372.334893,117.322398 C380.679064,133.280662 386.198146,152.11787 388.617876,158.078886 C390.422602,162.524839 392.314008,171.103712 394.04451,185.164806 C394.940381,192.444154 397.167522,203.5 399.948259,203.5 C402.726203,203.5 400.982103,193.180619 399.948259,185.164806 C399.25903,179.820931 397.291114,169.664424 394.04451,154.695284 Z" id="Path-4" stroke="#979797" fill="#D8D8D8"></path>
            </g>
        </g>
    </g>
</svg>